<svg xmlns="http://www.w3.org/2000/svg" version="1.1" xmlns:xlink="http://www.w3.org/1999/xlink" width="2000" height="287" viewBox="0 0 2000 287"><svg xml:space="preserve" width="2000" height="287" data-version="2" data-id="lg_5NSTgGQrefysOwxe9R" viewBox="0 0 411 287" x="0" y="0"><rect width="100%" height="100%" fill="transparent"></rect><g transform="translate(211.69 141.14)"><linearGradient id="a" x1="0" x2="1" y1="0" y2="0" gradientUnits="objectBoundingBox"><stop offset="0%" stop-color="#ff6cab"></stop><stop offset="100%" stop-color="#7366ff"></stop></linearGradient><path fill="url(#a)" d="M0-122.525a122.525 122.525 0 1 0 0 245.05 122.525 122.525 0 1 0 0-245.05"></path></g><path fill="#fcfcf3" d="M210.92 71.07c-27.089.034-49.038 21.991-49.065 49.08 0 45.615 46.093 87.38 48.048 89.135q.462.385 1.017.385a1.54 1.54 0 0 0 1.062-.416c1.94-1.848 48.018-45.8 48.018-89.104-.027-27.095-21.985-49.054-49.08-49.08m-39.686 49.542c0-21.991 17.895-39.886 39.886-39.886s39.886 17.895 39.886 39.886-17.895 39.886-39.886 39.886-39.886-17.895-39.886-39.886"></path><path fill="#fcfcf3" d="M211.12 83.775c-20.331.034-36.803 16.506-36.837 36.837.017 20.34 16.497 36.826 36.837 36.852 20.346-.017 36.835-16.506 36.852-36.852-.034-20.336-16.516-36.81-36.852-36.837m21.868 45.384h-12.32v12.32h-16.94v-12.32h-12.32v-16.94h12.32v-12.32h16.94v12.32h12.32z"></path><g transform="translate(130.71 141.79)scale(3.49)"><linearGradient id="b" x1="0" x2="1" y1="0" y2="0" gradientUnits="objectBoundingBox"><stop offset="0%" stop-color="#ff6cab"></stop><stop offset="100%" stop-color="#7366ff"></stop></linearGradient><path fill="url(#b)" d="M70.94 76.94A26.94 26.94 0 1 1 86.77 28.2C77.117 13.35 58.846 6.615 41.864 11.65 24.882 16.684 13.233 32.287 13.233 50s11.649 33.316 28.63 38.35c16.983 5.035 35.254-1.7 44.907-16.55a27 27 0 0 1-15.83 5.14" transform="translate(-50 -50)"></path></g><g transform="matrix(-3.34 -.06 -.06 3.53 285.59 143.48)"><linearGradient id="c" x1="0" x2="1" y1="0" y2="0" gradientUnits="objectBoundingBox"><stop offset="0%" stop-color="#ff6cab"></stop><stop offset="100%" stop-color="#7366ff"></stop></linearGradient><path fill="url(#c)" d="M70.94 76.94A26.94 26.94 0 1 1 86.77 28.2C77.117 13.35 58.846 6.615 41.864 11.65 24.882 16.684 13.233 32.287 13.233 50s11.649 33.316 28.63 38.35c16.983 5.035 35.254-1.7 44.907-16.55a27 27 0 0 1-15.83 5.14" transform="translate(-50 -50)"></path></g></svg></svg>